# xmcd
#
# Track frame offsets: 
#        150
#        23632
#        37630
#        64247
#        80880
#        95515
#        117172
#        139555
#        156745
#        186522
#        194395
#        209907
#
# Disc length: 3133 seconds
#
# Revision: 1
# Processed by: cddbd v1.5.1PL2 Copyright (c) Steve Scherf et al.
# Submitted via: ExactAudioCopy v0.95b3
#
DISCID=b00c3b0c
DTITLE=Betsy Pecanins and Guillermo Briseño - Nada Que Perder
DYEAR=1994
DGENRE=Blues
TTITLE0=Blues With A Feeling
TTITLE1=Happy Home
TTITLE2=Necesito Despertar
TTITLE3=No Tengo Nada Que Perder
TTITLE4=Caricia Urgente
TTITLE5=Sea Of Love
TTITLE6=Puedo Ver En Tí
TTITLE7=Viejos Los Cerros
TTITLE8=Baby, What You Want Me To Do?
TTITLE9=You Shook Me
TTITLE10=Acércate
TTITLE11=With A Little Help From My Friends
EXTD=
EXTT0=
EXTT1=
EXTT2=
EXTT3=
EXTT4=
EXTT5=
EXTT6=
EXTT7=
EXTT8=
EXTT9=
EXTT10=
EXTT11=
PLAYORDER=
